<svg xmlns="http://www.w3.org/2000/svg" width="18" height="18"><path fill="gray" d="M10.91 5.633c-.404-.34-.957-.51-1.657-.51-.312 0-.644.035-.994.105-.35.07-.64.15-.868.237v.996h.05c.18-.113.43-.225.744-.336.314-.11.647-.166 1-.166.393 0 .714.09.963.27.248.182.372.456.372.824 0 .28-.052.51-.156.69-.104.182-.25.357-.44.526-.155.146-.356.29-.602.434-.246.144-.475.275-.686.396v1.49h.874v-1.1c.267-.153.52-.31.757-.474.237-.163.447-.337.63-.523.185-.19.334-.412.448-.66.114-.25.17-.534.17-.853 0-.555-.202-1.003-.607-1.344zM8.594 11.51h.996v1.03h-.996z"/><path fill="gray" d="M9 18c-4.962 0-9-4.037-9-9 0-4.962 4.038-9 9-9 4.963 0 9 4.038 9 9 0 4.963-4.037 9-9 9zM9 1C4.59 1 1 4.59 1 9s3.59 8 8 8 8-3.59 8-8-3.59-8-8-8z"/></svg>